# Blender v2.79 (sub 0) OBJ File: ''
# www.blender.org
mtllib cubeWork.mtl
o Cube
v 5.286911 -5.286911 -5.286910
v 5.286911 -5.286911 5.286911
v -5.286911 -5.286911 5.286910
v -5.286909 -5.286911 -5.286912
v 5.286913 5.286911 -5.286908
v 5.286907 5.286911 5.286914
v -5.286912 5.286911 5.286909
v -5.286910 5.286911 -5.286911
vt 0.000100 0.999900
vt 0.999900 0.000100
vt 0.999900 0.999900
vt 0.000100 0.999900
vt 0.999899 0.000100
vt 0.999900 0.999899
vt 0.000100 0.000100
vt 0.999900 0.000100
vt 0.999900 0.999900
vt 0.000100 0.000100
vt 0.999900 0.000100
vt 0.000100 0.999900
vt 0.999900 0.000100
vt 0.999900 0.999900
vt 0.000100 0.000100
vt 0.999900 0.000100
vt 0.000100 0.000100
vt 0.000100 0.999900
vt 0.000100 0.999900
vt 0.000100 0.999900
vn 0.0000 -1.0000 0.0000
vn 0.0000 1.0000 0.0000
vn 1.0000 -0.0000 0.0000
vn 0.0000 -0.0000 1.0000
vn -1.0000 -0.0000 -0.0000
vn 0.0000 0.0000 -1.0000
usemtl stone
s off
f 2/1/1 4/2/1 1/3/1
f 8/4/2 6/5/2 5/6/2
f 5/6/3 2/7/3 1/8/3
f 6/9/4 3/10/4 2/11/4
f 3/12/5 8/13/5 4/14/5
f 1/3/6 8/15/6 5/16/6
f 8/4/2 7/17/2 6/5/2
f 6/9/4 7/18/4 3/10/4
f 3/12/5 7/17/5 8/13/5
f 1/3/6 4/19/6 8/15/6
f 5/6/3 6/20/3 2/7/3
f 2/1/1 3/10/1 4/2/1
