# Blender v2.79 (sub 0) OBJ File: ''
# www.blender.org
mtllib yui,obj.mtl
o Cube
v 2.460153 0.042086 -2.460153
v 2.460153 0.042086 2.460153
v -2.460153 0.042086 2.460152
v -2.460152 0.042086 -2.460154
v 2.460154 4.962392 -2.460151
v 2.460151 4.962392 2.460154
v -2.460154 4.962392 2.460152
v -2.460153 4.962392 -2.460153
v 2.460153 0.042086 -2.460153
v 2.460153 0.042086 -2.460153
v 2.460153 0.042086 2.460153
v 2.460153 0.042086 2.460153
v -2.460152 0.042086 -2.460154
v -2.460152 0.042086 -2.460154
v 2.460154 4.962392 -2.460151
v 2.460154 4.962392 -2.460151
v -2.460153 0.042086 2.460152
v -2.460153 0.042086 2.460152
v 2.460151 4.962392 2.460154
v 2.460151 4.962392 2.460154
v -2.460154 4.962392 2.460152
v -2.460154 4.962392 2.460152
v -2.460153 4.962392 -2.460153
v -2.460153 4.962392 -2.460153
vt 0.008792 -0.008640
vt 0.991208 1.008640
vt -0.008640 0.991208
vt 0.008792 -0.008640
vt 0.991208 1.008640
vt -0.008640 0.991208
vt 0.008792 -0.008640
vt 0.991208 1.008640
vt -0.008640 0.991208
vt 0.008792 -0.008640
vt 0.991208 1.008640
vt -0.008640 0.991208
vt -0.008640 0.991208
vt 1.008640 0.008792
vt 0.991208 1.008640
vt 0.991208 1.008640
vt 0.008792 -0.008640
vt 1.008640 0.008792
vt 1.008640 0.008792
vt 1.008640 0.008792
vt 1.008640 0.008792
vt 1.008640 0.008792
vt 0.008792 -0.008640
vt -0.008640 0.991208
vn 0.0000 -1.0000 0.0000
vn 0.0000 1.0000 0.0000
vn 1.0000 -0.0000 0.0000
vn -0.0000 -0.0000 1.0000
vn -1.0000 -0.0000 -0.0000
vn 0.0000 0.0000 -1.0000
usemtl yui
s off
f 11/1/1 13/2/1 9/3/1
f 24/4/2 20/5/2 16/6/2
f 15/7/3 12/8/3 10/9/3
f 6/10/4 18/11/4 2/12/4
f 3/13/5 23/14/5 14/15/5
f 1/16/6 8/17/6 5/18/6
f 11/1/1 17/19/1 13/2/1
f 24/4/2 22/20/2 20/5/2
f 15/7/3 19/21/3 12/8/3
f 6/10/4 21/22/4 18/11/4
f 3/13/5 7/23/5 23/14/5
f 1/16/6 4/24/6 8/17/6
